<?xml version="1.0" standalone="no"?>
<!DOCTYPE svg PUBLIC "-//W3C//DTD SVG 20010904//EN"
 "http://www.w3.org/TR/2001/REC-SVG-20010904/DTD/svg10.dtd">
<svg version="1.0" xmlns="http://www.w3.org/2000/svg"
 width="256.000000pt" height="256.000000pt" viewBox="0 0 256.000000 256.000000"
 preserveAspectRatio="xMidYMid meet">

<g transform="translate(0.000000,256.000000) scale(0.100000,-0.100000)"
fill="#000000" stroke="none">
<path d="M260 2037 c-37 -18 -70 -74 -70 -117 0 -43 33 -99 70 -117 20 -10
245 -13 1026 -13 1000 0 1001 0 1028 21 35 27 56 70 56 112 0 40 -35 96 -70
114 -36 18 -2004 18 -2040 0z"/>
<path d="M260 1397 c-37 -18 -70 -74 -70 -117 0 -43 33 -99 70 -117 20 -10
245 -13 1026 -13 1000 0 1001 0 1028 21 35 27 56 70 56 112 0 40 -35 96 -70
114 -36 18 -2004 18 -2040 0z"/>
<path d="M260 757 c-37 -18 -70 -74 -70 -117 0 -43 33 -99 70 -117 20 -10 245
-13 1026 -13 1000 0 1001 0 1028 21 35 27 56 70 56 112 0 40 -35 96 -70 114
-36 18 -2004 18 -2040 0z"/>
</g>
</svg>
